# xmcd
#
# Track frame offsets:
#	150
#	16109
#	32248
#	45897
#	64971
#	80293
#	107176
#	124358
#	150924
#	166387
#	183945
#	198341
#
# Disc length: 2841 seconds
# Revision: 0
# Processed by: cddbd v1.5.1PL2 Copyright (c) Steve Scherf et al.
# Submitted via: cdrLabel 7.0
#
DISCID=8f0b170c
DTITLE=Shemekia Copeland - Shemekia Copeland - The Soul Truth
DYEAR=1900
DGENRE=
TTITLE0=Breakin' Out
TTITLE1=Who Stole My Radio ?
TTITLE2=Poor, Poor Excuse
TTITLE3=All About You
TTITLE4=Better Bot Touch
TTITLE5=Strong Enough
TTITLE6=You Can't Have That
TTITLE7=Uptown Line
TTITLE8=Givin' Up You
TTITLE9=Used
TTITLE10=Honey Do That Voo-Doo
TTITLE11=Something Heavy
EXTD=
EXTT0=
EXTT1=
EXTT2=
EXTT3=
EXTT4=
EXTT5=
EXTT6=
EXTT7=
EXTT8=
EXTT9=
EXTT10=
EXTT11=
PLAYORDER=
